<?xml version="1.0" encoding="utf-8"?>
<!-- Generator: Adobe Illustrator 16.0.0, SVG Export Plug-In . SVG Version: 6.00 Build 0)  -->
<!DOCTYPE svg PUBLIC "-//W3C//DTD SVG 1.1//EN" "http://www.w3.org/Graphics/SVG/1.1/DTD/svg11.dtd">
<svg version="1.1" id="Layer_1" xmlns="http://www.w3.org/2000/svg" xmlns:xlink="http://www.w3.org/1999/xlink" x="0px" y="0px"
	 width="117.334px" height="138px" viewBox="0 0 117.334 138" enable-background="new 0 0 117.334 138" xml:space="preserve">
<g>
	<polygon fill="#4D4D4F" points="105.863,44.586 105.863,93.383 94.613,93.383 94.613,49.301 83.363,58.301 83.363,93.383 
		72.113,93.383 72.113,63.61 60.863,72.61 60.863,104.633 117.113,104.633 117.113,35.586 	"/>
	<polygon fill="#95C93D" points="60.863,-0.025 60.863,67.034 72.113,58.034 72.113,11.237 83.363,11.237 83.363,52.836 
		94.613,43.836 94.613,11.237 105.863,11.237 105.863,39.003 117.113,30.003 117.113,-0.025 117.113,-0.025 	"/>
	<polygon fill="#95C93D" points="56.739,67.034 56.739,55.784 0.489,55.784 0.489,85.832 45.489,85.832 45.489,93.383 0.489,93.383 
		0.489,104.633 56.739,104.633 56.739,74.582 11.739,74.582 11.739,67.034 	"/>
	<polygon fill="#4D4D4F" points="56.739,11.202 56.739,-0.048 0.489,-0.048 0.489,30 45.489,30 45.489,37.551 0.489,37.551 
		0.489,48.801 56.739,48.801 56.739,18.75 11.739,18.75 11.739,11.202 	"/>
	<rect x="0.63" y="115.701" fill="#636466" width="116.561" height="1"/>
	<rect x="0.63" y="136.965" fill="#636466" width="116.561" height="1"/>
	<g>
		<path fill="#95C93D" d="M1.459,131.765c0.39,0.392,0.858,0.704,1.406,0.938c0.546,0.234,1.18,0.353,1.898,0.353
			c0.703,0,1.287-0.113,1.757-0.341c0.469-0.226,0.703-0.581,0.703-1.065c0-0.251-0.051-0.466-0.153-0.645
			c-0.102-0.181-0.272-0.34-0.516-0.481c-0.241-0.141-0.562-0.269-0.959-0.386c-0.399-0.118-0.896-0.246-1.488-0.387
			c-0.422-0.094-0.841-0.219-1.253-0.374c-0.416-0.155-0.786-0.363-1.114-0.622c-0.328-0.258-0.594-0.569-0.797-0.938
			c-0.202-0.366-0.305-0.808-0.305-1.323c0-0.531,0.12-0.997,0.363-1.396c0.241-0.397,0.565-0.733,0.972-1.007
			c0.407-0.273,0.864-0.48,1.371-0.62c0.509-0.142,1.034-0.212,1.581-0.212c0.923,0,1.715,0.12,2.38,0.363
			c0.664,0.242,1.246,0.583,1.745,1.02l-1.147,1.453c-0.328-0.297-0.738-0.547-1.23-0.751c-0.492-0.202-1.066-0.304-1.722-0.304
			c-0.672,0-1.212,0.108-1.617,0.328c-0.406,0.219-0.609,0.578-0.609,1.079c0,0.468,0.27,0.815,0.808,1.041
			c0.539,0.228,1.246,0.441,2.121,0.646c0.515,0.124,0.996,0.269,1.441,0.434c0.444,0.164,0.836,0.374,1.171,0.632
			c0.337,0.258,0.603,0.574,0.797,0.948c0.195,0.375,0.293,0.829,0.293,1.36c0,0.547-0.125,1.026-0.375,1.441
			c-0.249,0.413-0.586,0.762-1.007,1.042c-0.422,0.281-0.906,0.492-1.453,0.633c-0.548,0.142-1.117,0.211-1.711,0.211
			c-2.062,0-3.608-0.555-4.64-1.663L1.459,131.765z"/>
		<path fill="#95C93D" d="M11.816,125.978c0-0.484,0-0.902,0-1.254s-0.007-0.723-0.021-1.113h2.014l0.071,1.641
			c0.124-0.188,0.288-0.395,0.491-0.621c0.203-0.226,0.445-0.434,0.727-0.621c0.282-0.188,0.613-0.344,0.996-0.469
			c0.383-0.126,0.824-0.188,1.325-0.188c0.843,0,1.541,0.168,2.097,0.503c0.553,0.338,0.987,0.824,1.301,1.466
			c0.437-0.517,0.972-0.973,1.604-1.371s1.418-0.598,2.354-0.598c1.406,0,2.445,0.418,3.118,1.254
			c0.671,0.836,1.007,1.956,1.007,3.362v6.538h-2.109v-6.373c0-1.016-0.199-1.763-0.598-2.239c-0.397-0.476-0.98-0.714-1.746-0.714
			c-0.438,0-0.84,0.09-1.207,0.269c-0.367,0.181-0.688,0.42-0.961,0.716c-0.273,0.297-0.483,0.643-0.631,1.042
			c-0.149,0.398-0.224,0.817-0.224,1.254v6.046h-2.108v-6.373c0-1.016-0.2-1.763-0.598-2.239c-0.399-0.476-0.973-0.714-1.723-0.714
			c-0.578,0-1.062,0.124-1.454,0.375c-0.39,0.25-0.706,0.574-0.948,0.972c-0.241,0.399-0.414,0.855-0.516,1.371
			s-0.151,1.031-0.151,1.547v5.062h-2.11V125.978z"/>
		<path fill="#95C93D" d="M32.438,131.765c0.391,0.392,0.859,0.704,1.407,0.938c0.546,0.234,1.178,0.353,1.897,0.353
			c0.703,0,1.287-0.113,1.757-0.341c0.47-0.226,0.702-0.581,0.702-1.065c0-0.251-0.05-0.466-0.151-0.645
			c-0.102-0.181-0.272-0.34-0.516-0.481c-0.242-0.141-0.562-0.269-0.96-0.386c-0.399-0.118-0.895-0.246-1.487-0.387
			c-0.424-0.094-0.841-0.219-1.254-0.374c-0.416-0.155-0.786-0.363-1.114-0.622c-0.328-0.258-0.594-0.569-0.797-0.938
			c-0.202-0.366-0.305-0.808-0.305-1.323c0-0.531,0.121-0.997,0.363-1.396c0.242-0.397,0.566-0.733,0.973-1.007
			s0.863-0.48,1.371-0.62c0.507-0.142,1.034-0.212,1.581-0.212c0.923,0,1.715,0.12,2.379,0.363c0.664,0.242,1.246,0.583,1.747,1.02
			l-1.149,1.453c-0.328-0.297-0.738-0.547-1.229-0.751c-0.493-0.202-1.067-0.304-1.723-0.304c-0.672,0-1.212,0.108-1.617,0.328
			c-0.406,0.219-0.609,0.578-0.609,1.079c0,0.468,0.27,0.815,0.808,1.041c0.54,0.228,1.246,0.441,2.121,0.646
			c0.517,0.124,0.997,0.269,1.442,0.434c0.444,0.164,0.835,0.374,1.171,0.632c0.335,0.258,0.603,0.574,0.797,0.948
			c0.195,0.375,0.292,0.829,0.292,1.36c0,0.547-0.125,1.026-0.375,1.441c-0.249,0.413-0.584,0.762-1.006,1.042
			c-0.423,0.281-0.908,0.492-1.454,0.633c-0.548,0.142-1.116,0.211-1.711,0.211c-2.062,0-3.608-0.555-4.64-1.663L32.438,131.765z"/>
		<path fill="#95C93D" d="M41.366,123.611h2.32l2.438,8.319l2.624-8.319h1.805l2.624,8.39l2.391-8.39h2.18l-3.609,10.896h-2.085
			l-2.53-7.615l-2.508,7.615h-1.969L41.366,123.611z"/>
		<path fill="#636466" d="M59.691,126c0-0.296,0-0.551,0-0.761c0-0.211,0-0.399,0-0.562c0-0.165-0.004-0.32-0.012-0.469
			c-0.007-0.148-0.021-0.309-0.036-0.48h0.986c0.014,0.172,0.027,0.328,0.035,0.469s0.014,0.293,0.023,0.456
			c0.008,0.165,0.012,0.353,0.012,0.563c0,0.212,0,0.466,0,0.762c0.123-0.234,0.295-0.5,0.514-0.797
			c0.221-0.297,0.492-0.574,0.82-0.832s0.719-0.473,1.174-0.645c0.451-0.171,0.975-0.259,1.57-0.259c1.045,0,1.842,0.223,2.389,0.67
			c0.547,0.444,0.93,1.073,1.148,1.885v-0.022c0.109-0.219,0.285-0.473,0.527-0.762s0.543-0.566,0.902-0.832
			s0.773-0.487,1.242-0.667c0.469-0.181,0.992-0.271,1.57-0.271c0.719,0,1.322,0.11,1.816,0.329c0.49,0.219,0.881,0.535,1.172,0.949
			c0.289,0.414,0.494,0.913,0.621,1.5c0.123,0.584,0.186,1.237,0.186,1.956v6.327h-1.055v-5.975c0-0.798-0.062-1.46-0.186-1.992
			c-0.127-0.53-0.314-0.953-0.562-1.266c-0.25-0.312-0.553-0.531-0.904-0.657c-0.35-0.124-0.76-0.188-1.23-0.188
			c-0.529,0-1.029,0.109-1.498,0.328s-0.879,0.509-1.23,0.868c-0.35,0.359-0.629,0.77-0.832,1.23c-0.203,0.46-0.305,0.94-0.305,1.44
			v6.21h-1.055v-5.975c0-0.798-0.062-1.46-0.188-1.992c-0.125-0.53-0.307-0.953-0.551-1.266c-0.242-0.312-0.539-0.531-0.891-0.657
			c-0.35-0.124-0.76-0.188-1.229-0.188c-0.643,0-1.205,0.141-1.689,0.422c-0.484,0.28-0.891,0.642-1.219,1.079
			c-0.326,0.438-0.574,0.922-0.736,1.452c-0.164,0.532-0.248,1.055-0.248,1.57v5.554h-1.053V126z"/>
		<path fill="#636466" d="M88.842,132.89c-0.469,0.594-1.105,1.06-1.91,1.395c-0.805,0.337-1.629,0.504-2.473,0.504
			c-0.795,0-1.533-0.137-2.215-0.41c-0.678-0.272-1.26-0.66-1.744-1.16s-0.863-1.097-1.139-1.792
			c-0.271-0.695-0.408-1.465-0.408-2.309c0-0.781,0.129-1.515,0.387-2.202c0.258-0.688,0.613-1.289,1.066-1.805
			c0.451-0.516,0.998-0.921,1.641-1.218c0.639-0.298,1.342-0.447,2.107-0.447c0.734,0,1.42,0.13,2.051,0.389
			c0.633,0.257,1.18,0.636,1.641,1.136s0.82,1.121,1.078,1.862c0.258,0.743,0.387,1.598,0.387,2.566h-9.186
			c0.016,0.609,0.133,1.184,0.352,1.723c0.219,0.538,0.516,1.008,0.889,1.405c0.377,0.398,0.826,0.712,1.348,0.938
			c0.525,0.226,1.107,0.34,1.746,0.34c0.328,0,0.668-0.036,1.02-0.106s0.691-0.176,1.02-0.315c0.328-0.141,0.629-0.306,0.902-0.493
			s0.506-0.397,0.691-0.632L88.842,132.89z M88.162,128.484c-0.141-1.326-0.562-2.334-1.266-3.022
			c-0.701-0.687-1.617-1.031-2.742-1.031c-0.578,0-1.105,0.106-1.582,0.317c-0.477,0.212-0.887,0.5-1.229,0.867
			c-0.344,0.367-0.621,0.796-0.832,1.288s-0.332,1.02-0.363,1.581H88.162z"/>
		<path fill="#636466" d="M100.348,134.507c-0.018-0.202-0.023-0.406-0.023-0.608c-0.016-0.173-0.023-0.371-0.023-0.599
			c0-0.227,0-0.448,0-0.667c-0.234,0.406-0.547,0.766-0.938,1.078c-0.328,0.266-0.742,0.511-1.24,0.738
			c-0.502,0.226-1.104,0.339-1.807,0.339c-0.828,0-1.545-0.145-2.156-0.434c-0.609-0.289-1.113-0.683-1.51-1.183
			c-0.398-0.501-0.697-1.09-0.891-1.771c-0.195-0.678-0.295-1.409-0.295-2.19c0-0.875,0.139-1.666,0.41-2.379
			c0.275-0.71,0.656-1.315,1.15-1.815c0.49-0.5,1.076-0.886,1.756-1.161c0.68-0.272,1.426-0.41,2.238-0.41
			c0.453,0,0.871,0.057,1.256,0.165c0.381,0.11,0.729,0.227,1.041,0.351c0.344,0.157,0.672,0.328,0.984,0.516v-5.6h1.029v13.381
			c0,0.312,0,0.605,0,0.878c0,0.273,0.01,0.513,0.025,0.715c0,0.25,0.008,0.469,0.023,0.656H100.348z M100.301,125.626
			c-0.234-0.219-0.508-0.414-0.82-0.586c-0.266-0.156-0.609-0.297-1.031-0.423c-0.422-0.124-0.906-0.188-1.453-0.188
			c-0.562,0-1.105,0.092-1.629,0.271c-0.523,0.181-0.992,0.464-1.404,0.855c-0.414,0.391-0.746,0.892-0.998,1.5
			c-0.25,0.608-0.373,1.336-0.373,2.18c0,0.609,0.07,1.186,0.209,1.732c0.143,0.548,0.365,1.032,0.67,1.453
			c0.303,0.422,0.697,0.759,1.182,1.009s1.078,0.375,1.781,0.375c0.656,0,1.227-0.121,1.711-0.364
			c0.484-0.241,0.885-0.542,1.207-0.901c0.32-0.358,0.559-0.738,0.715-1.138c0.156-0.397,0.234-0.753,0.234-1.066V125.626z"/>
		<path fill="#636466" d="M104.447,119.932h1.477v1.522h-1.477V119.932z M104.66,123.728h1.055v10.779h-1.055V123.728z"/>
		<path fill="#636466" d="M116.377,134.507c-0.018-0.14-0.025-0.297-0.025-0.468c-0.014-0.156-0.021-0.344-0.021-0.563
			c0-0.218,0-0.477,0-0.773c-0.281,0.406-0.59,0.746-0.926,1.02c-0.338,0.273-0.689,0.488-1.057,0.646
			c-0.365,0.155-0.725,0.265-1.076,0.328c-0.352,0.061-0.678,0.093-0.973,0.093c-0.453,0-0.906-0.047-1.359-0.141
			s-0.859-0.261-1.219-0.504c-0.357-0.241-0.652-0.569-0.879-0.984c-0.227-0.414-0.34-0.94-0.34-1.582
			c0-0.515,0.086-1.003,0.258-1.464s0.445-0.859,0.82-1.195s0.859-0.602,1.453-0.797s1.312-0.294,2.156-0.294
			c0.654,0,1.242,0.024,1.758,0.071c0.516,0.048,0.953,0.102,1.312,0.164v-0.609c0-0.593-0.07-1.085-0.211-1.476
			s-0.352-0.703-0.635-0.938c-0.279-0.235-0.625-0.398-1.029-0.492c-0.406-0.094-0.875-0.141-1.406-0.141
			c-0.891,0-1.598,0.129-2.121,0.387s-0.926,0.504-1.207,0.737l-0.562-0.727c0.297-0.28,0.777-0.577,1.441-0.89
			c0.664-0.313,1.473-0.47,2.426-0.47c1.391,0,2.465,0.298,3.223,0.892c0.756,0.594,1.137,1.578,1.137,2.953v4.968
			c0,0.312,0,0.605,0,0.878c0,0.273,0.008,0.513,0.023,0.715c0.014,0.25,0.029,0.469,0.045,0.656H116.377z M116.281,129
			c-0.326-0.078-0.736-0.145-1.229-0.199s-1.121-0.082-1.887-0.082c-0.797,0-1.43,0.098-1.898,0.294
			c-0.469,0.194-0.824,0.438-1.066,0.726c-0.242,0.289-0.396,0.602-0.469,0.938c-0.07,0.336-0.105,0.637-0.105,0.901
			c0,0.783,0.262,1.353,0.785,1.711c0.523,0.36,1.191,0.539,2.004,0.539c0.531,0,1.031-0.094,1.5-0.281
			c0.469-0.187,0.877-0.438,1.229-0.749c0.354-0.313,0.629-0.668,0.834-1.067c0.201-0.397,0.303-0.8,0.303-1.207V129z"/>
	</g>
</g>
</svg>
